<svg width="10" height="10" viewBox="0 0 10 10" fill="none" xmlns="http://www.w3.org/2000/svg">
<path d="M9.15586 2.12461L7.25039 0.219141C7.10977 0.0785156 6.91875 0 6.71953 0H0.375C0.167578 0 0 0.167578 0 0.375V9C0 9.20742 0.167578 9.375 0.375 9.375H9C9.20742 9.375 9.375 9.20742 9.375 9V2.6543C9.375 2.45508 9.29648 2.26523 9.15586 2.12461ZM3.1875 0.75H6.1875V2.0625H3.1875V0.75ZM4.6875 7.24219C3.75586 7.24219 3 6.48633 3 5.55469C3 4.62305 3.75586 3.86719 4.6875 3.86719C5.61914 3.86719 6.375 4.62305 6.375 5.55469C6.375 6.48633 5.61914 7.24219 4.6875 7.24219ZM4.6875 4.61719C4.16953 4.61719 3.75 5.03672 3.75 5.55469C3.75 6.07266 4.16953 6.49219 4.6875 6.49219C5.20547 6.49219 5.625 6.07266 5.625 5.55469C5.625 5.03672 5.20547 4.61719 4.6875 4.61719Z" fill="#7EFF41"/>
</svg>
